<svg xmlns="http://www.w3.org/2000/svg" xmlns:xlink="http://www.w3.org/1999/xlink" width="500px" height="500px" viewBox="0 0 500 500" preserveAspectRatio="xMinYMin meet" ><rect id="svgEditorBackground" x="0" y="0" width="500" height="500" style="fill: none; stroke: none;"/><defs id="svgEditorDefs"><symbol xmlns="http://www.w3.org/2000/svg" id="f135" preserveAspectRatio="xMidYMid meet" viewBox="0 0 512 512"><path d="M505.05 19.1a15.89 15.89 0 0 0-12.2-12.2C460.65 0 435.46 0 410.36 0c-103.2 0-165.1 55.2-211.29 128H94.87A48 48 0 0 0 52 154.49l-49.42 98.8A24 24 0 0 0 24.07 288h103.77l-22.47 22.47a32 32 0 0 0 0 45.25l50.9 50.91a32 32 0 0 0 45.26 0L224 384.16V488a24 24 0 0 0 34.7 21.49l98.7-49.39a47.91 47.91 0 0 0 26.5-42.9V312.79c72.59-46.3 128-108.4 128-211.09.1-25.2.1-50.4-6.85-82.6zM384 168a40 40 0 1 1 40-40 40 40 0 0 1-40 40z"/></symbol></defs><use xlink:href="#f135" x="-31.862848944804227" y="41.45283002390579" width="332.000000" height="332.000000" id="e1_icon" style="fill:#4D4D4D;" transform="matrix(0.794843 -0.794843 0.794843 0.794843 -17.9914 236.251)"/></svg>